<svg width="32" height="32" viewBox="0 0 32 32" fill="none" xmlns="http://www.w3.org/2000/svg">
<g id="icon/action/info_24px">
<path id="icon/action/info_24px_2" fill-rule="evenodd" clip-rule="evenodd" d="M16 29.3333C23.36 29.3333 29.3333 23.36 29.3333 16C29.3333 8.63998 23.36 2.66665 16 2.66665C8.63999 2.66665 2.66666 8.63998 2.66666 16C2.66666 23.36 8.63999 29.3333 16 29.3333ZM17.3333 22.6666L17.3333 20L14.6667 20L14.6667 22.6666L17.3333 22.6666ZM17.3333 17.3333L17.3333 9.33332L14.6667 9.33332L14.6667 17.3333L17.3333 17.3333ZM26.6667 16C26.6667 10.12 21.88 5.33331 16 5.33331C10.12 5.33331 5.33333 10.12 5.33333 16C5.33333 21.88 10.12 26.6666 16 26.6666C21.88 26.6666 26.6667 21.88 26.6667 16Z" fill="black" fill-opacity="0.54"/>
</g>
</svg>
